<?xml version="1.0" standalone="no"?>
<!DOCTYPE svg PUBLIC "-//W3C//DTD SVG 20010904//EN"
 "http://www.w3.org/TR/2001/REC-SVG-20010904/DTD/svg10.dtd">
<svg version="1.0" xmlns="http://www.w3.org/2000/svg"
 width="512.000000pt" height="512.000000pt" viewBox="0 0 512.000000 512.000000"
 preserveAspectRatio="xMidYMid meet">

<g transform="translate(0.000000,512.000000) scale(0.100000,-0.100000)"
fill="#000000" stroke="none">
<path d="M911 4154 c-201 -210 -370 -467 -465 -706 -48 -123 -27 -242 59 -317
54 -47 100 -64 175 -64 74 -1 150 31 191 81 14 15 61 102 107 193 92 185 171
302 297 436 60 64 84 97 78 106 -15 25 -326 377 -334 377 -4 0 -52 -48 -108
-106z"/>
<path d="M442 2817 c-44 -14 -118 -80 -145 -131 -20 -37 -22 -55 -21 -186 2
-319 76 -624 229 -935 123 -251 257 -436 461 -636 529 -515 1271 -743 1999
-612 143 25 212 69 254 163 23 51 27 132 9 192 -15 50 -78 123 -132 150 -53
28 -131 29 -291 4 -160 -24 -420 -19 -579 13 -708 143 -1259 694 -1396 1397
-12 60 -25 174 -29 254 -9 159 -19 195 -72 255 -65 74 -186 105 -287 72z"/>
<path d="M3665 1194 c-16 -14 -64 -48 -105 -76 -103 -69 -129 -95 -156 -153
-28 -58 -32 -156 -10 -209 19 -46 82 -113 126 -136 51 -26 126 -34 180 -20 50
13 175 93 275 174 l65 54 -156 178 c-209 240 -183 218 -219 188z"/>
</g>
</svg>
